<svg width="71.776mm" height="19mm" version="1.1" viewBox="0 0 71.776 19" xmlns="http://www.w3.org/2000/svg" xmlns:xlink="http://www.w3.org/1999/xlink">
 <defs>
  <linearGradient id="a" x1="36.635" x2="36.635" y1="6.4761" y2="26.537" gradientUnits="userSpaceOnUse">
   <stop stop-color="#11aeed" offset="0"/>
   <stop stop-color="#11aeed" stop-opacity="0" offset="1"/>
  </linearGradient>
 </defs>
 <g>
  <path transform="matrix(1 0 0 .91663 0 .19032)" d="m67.43 17.119q-2.0151 0-3.1807-1.1261-1.1656-1.1458-1.1656-3.0819v-6.4008q0-1.936 1.1656-3.0621 1.1656-1.1458 3.1807-1.1458t3.1807 1.1261q1.1656 1.1261 1.1656 3.0621v6.4206q0 1.936-1.1656 3.0819-1.1656 1.1261-3.1807 1.1261zm0-1.8965q1.0668 0 1.6397-0.59267 0.57291-0.59267 0.57291-1.7187v-6.4008q0-1.1261-0.57291-1.7187-0.55316-0.59267-1.6397-0.59267t-1.6595 0.59267q-0.55316 0.59267-0.55316 1.7187v6.4008q0 1.1261 0.57291 1.7187 0.57291 0.59267 1.6397 0.59267zm-15.608 1.699 3.6745-14.422h2.8053l3.6943 14.422h-2.1731l-0.86925-3.6548h-4.0894l-0.86925 3.6548zm3.4375-5.4328h3.2794l-0.98778-4.1487q-0.25682-1.1063-0.43462-1.9163-0.15804-0.80998-0.21731-1.1261-0.059267 0.31609-0.21731 1.1261-0.15804 0.80998-0.43462 1.8965zm-9.9575 5.4328v-12.466h-3.8523v-1.9558h9.858v1.9558h-3.8721v12.466zm-31.031-17.129a2.5 2.7274 0 0 0-2.4717 2.7275 2.5 2.7274 0 0 0 1.8051 2.6198 8.5 9.2731 0 0 0-2.1048 6.1079 8.5 9.2731 0 0 0 8.4997 9.2729 8.5 9.2731 0 0 0 8.5003-9.2729 8.5 9.2731 0 0 0-2.1048-6.1084 2.5 2.7274 0 0 0 1.8045-2.6193 2.5 2.7274 0 0 0-2.4996-2.7275 2.5 2.7274 0 0 0-2.5001 2.7275 2.5 2.7274 0 0 0 0.0031 0.13812 8.5 9.2731 0 0 0-3.2034-0.68385 8.5 9.2731 0 0 0-3.2029 0.68385 2.5 2.7274 0 0 0 0.0031-0.13812 2.5 2.7274 0 0 0-2.5001-2.7275 2.5 2.7274 0 0 0-0.02842 0z" fill="url(#a)"/>
 </g>
 <g>
  <g transform="matrix(1 0 0 .91663 0 .19032)" fill="#CBC0D3" stroke-width=".265" aria-label="BooSTAO">
   <path d="m-4.2915e-8 16.922v-14.422h4.2475q2.0348 0 3.2004 1.0075 1.1853 0.98778 1.1853 2.7065 0 1.2248-0.65193 2.0546-0.63218 0.80998-1.7187 1.047 1.2248 0.25682 1.9558 1.1853 0.75071 0.92851 0.75071 2.3707 0 1.857-1.2051 2.9633-1.1853 1.0866-3.2399 1.0866zm2.0743-8.3764h2.1534q1.047 0 1.6595-0.55316 0.63218-0.57291 0.63218-1.5607 0-0.96802-0.61242-1.5212-0.61242-0.57291-1.6595-0.57291h-2.1731zm0 6.5391h2.2719q1.1458 0 1.8175-0.61242 0.67169-0.63218 0.67169-1.699 0-1.1063-0.67169-1.778-0.67169-0.67169-1.8175-0.67169h-2.2719z"/>
   <path d="m14.778 17.099q-2.0151 0-3.2004-1.1261-1.1853-1.1458-1.1853-3.0819v-2.8053q0-1.936 1.1853-3.0621 1.1853-1.1458 3.2004-1.1458t3.2004 1.1458q1.2051 1.1261 1.2051 3.0621v2.8053q0 1.936-1.2051 3.0819-1.1853 1.1261-3.2004 1.1261zm0-1.8768q1.0668 0 1.6595-0.59267 0.61242-0.61242 0.61242-1.7385v-2.8053q0-1.1261-0.61242-1.7187-0.59267-0.61242-1.6595-0.61242-1.0668 0-1.6595 0.61242-0.59267 0.59267-0.59267 1.7187v2.8053q0 1.1261 0.59267 1.7385 0.59267 0.59267 1.6595 0.59267z"/>
   <path d="m25.308 17.099q-2.0151 0-3.2004-1.1261-1.1853-1.1458-1.1853-3.0819v-2.8053q0-1.936 1.1853-3.0621 1.1853-1.1458 3.2004-1.1458 2.0151 0 3.2004 1.1458 1.2051 1.1261 1.2051 3.0621v2.8053q0 1.936-1.2051 3.0819-1.1853 1.1261-3.2004 1.1261zm0-1.8768q1.0668 0 1.6595-0.59267 0.61242-0.61242 0.61242-1.7385v-2.8053q0-1.1261-0.61242-1.7187-0.59267-0.61242-1.6595-0.61242-1.0668 0-1.6595 0.61242-0.59267 0.59267-0.59267 1.7187v2.8053q0 1.1261 0.59267 1.7385 0.59267 0.59267 1.6595 0.59267z"/>
   <path d="m35.898 17.119q-2.1731 0-3.4375-1.0668-1.2446-1.0866-1.2644-2.9436h2.1336q0 0.98778 0.67169 1.5607 0.69145 0.55316 1.9163 0.55316 1.1458 0 1.7978-0.55316 0.65194-0.55316 0.65194-1.5212 0-0.79022-0.45438-1.3829-0.45438-0.59267-1.2644-0.82974l-1.7978-0.5334q-1.6002-0.45438-2.4694-1.5409-0.84949-1.1063-0.84949-2.6275 0-1.1853 0.5334-2.0743t1.5212-1.3829 2.3312-0.49389q1.9756 0 3.1609 1.0866 1.2051 1.0668 1.2248 2.8448h-2.1336q0-0.94827-0.59267-1.4817-0.59267-0.55316-1.699-0.55316-1.047 0-1.6397 0.51365-0.57291 0.49389-0.57291 1.4026 0 0.80998 0.43462 1.4026 0.43462 0.57291 1.2644 0.82974l1.8373 0.5334q1.5804 0.47413 2.4299 1.5804 0.86925 1.0866 0.86925 2.6275 0 1.2248-0.59267 2.1336-0.57291 0.90876-1.6002 1.4224-1.0273 0.49389-2.4102 0.49389z"/>
  </g>
 </g>
</svg>
