
      <svg viewBox="0 0 280 280" fill="none" xmlns="http://www.w3.org/2000/svg">
        
        <g transform="translate(40, 36)">
          <path d="M100 0C69.072 0 44 25.072 44 56v6.166c-5.675.952-10 5.888-10 11.834v14c0 6.052 4.48 11.058 10.305 11.881 2.067 19.806 14.458 36.541 31.695 44.73V163h-4c-39.764 0-72 32.236-72 72v9h200v-9c0-39.764-32.236-72-72-72h-4v-18.389c17.237-8.189 29.628-24.924 31.695-44.73C161.52 99.058 166 94.052 166 88V74c0-5.946-4.325-10.882-10-11.834V56c0-30.928-25.072-56-56-56z" fill="#EDB98A"></path>
          <path d="M76 144.611v8A55.79 55.79 0 00100 158a55.789 55.789 0 0024-5.389v-8A55.789 55.789 0 01100 150a55.79 55.79 0 01-24-5.389z" fill="#000" fill-opacity=".1"></path>
        </g>
        <g transform="translate(8, 170)">
          <path d="M108 14.694C92.484 18.38 80.895 25.529 77.228 34.142 50.72 44.765 32 70.696 32 101v9h200v-9.001c0-30.303-18.721-56.234-45.228-66.858-3.667-8.613-15.256-15.761-30.772-19.447V32c0 13.255-10.745 24-24 24s-24-10.745-24-24V14.694z" fill="#5199E4"></path>
          <path d="M102 63.337a67.11 67.11 0 01-7-2.817V110h7V63.337zm60 0a67.039 67.039 0 007-2.817V98.5a3.5 3.5 0 11-7 0V63.337z" fill="#F4F4F4"></path>
          <path d="M187.62 34.488a71.788 71.788 0 0110.832 5.628C197.107 55.615 167.87 68 132 68c30.928 0 56-13.431 56-30 0-1.188-.129-2.36-.38-3.512zm-111.24 0A16.477 16.477 0 0076 38c0 16.569 25.072 30 56 30-35.87 0-65.107-12.385-66.452-27.884a71.783 71.783 0 0110.832-5.628z" fill="#000" fill-opacity=".16"></path>
        </g>
        <g transform="translate(86, 134)">
          <rect x="22" y="7" width="64" height="26" rx="13" fill="#000" fill-opacity=".6"></rect>
          <rect x="24" y="9" width="60" height="22" rx="11" fill="#fff"></rect>
          <path d="M24.181 18H32V9.414A11 11 0 0135 9h1v9h9V9h4v9h9V9h4v9h9V9h2c.683 0 1.351.062 2 .181V18h8.819l.048.282v3.436l-.048.282H75v8.819c-.649.119-1.317.181-2 .181h-2v-9h-9v9h-4v-9h-9v9h-4v-9h-9v9h-1a11 11 0 01-3-.414V22h-7.819a11.057 11.057 0 010-4z" fill="#E6E6E6"></path>
        </g>
        <g transform="translate(112, 122)">
          <path fill-rule="evenodd" clip-rule="evenodd" d="M16 8c0 4.418 5.373 8 12 8s12-3.582 12-8" fill="#000" fill-opacity=".16"></path>
        </g>
        <g transform="translate(84, 90)">
          <path fill-rule="evenodd" clip-rule="evenodd" d="M16.16 22.447C18.007 18.648 22.164 16 26.998 16c4.816 0 8.961 2.63 10.817 6.407.552 1.122-.233 2.04-1.024 1.36-2.451-2.107-5.932-3.423-9.793-3.423-3.74 0-7.124 1.235-9.56 3.228-.891.728-1.818-.014-1.278-1.125zm58 0C76.007 18.648 80.164 16 84.998 16c4.816 0 8.961 2.63 10.817 6.407.552 1.122-.233 2.04-1.024 1.36-2.451-2.107-5.932-3.423-9.793-3.423-3.74 0-7.124 1.235-9.56 3.228-.891.728-1.818-.014-1.278-1.125z" fill="#000" fill-opacity=".6"></path>
        </g>
        <g transform="translate(84, 82)">
          <path d="M15.63 17.159c3.915-5.51 14.648-8.598 23.893-6.328a2 2 0 10.954-3.884C29.74 4.31 17.312 7.887 12.37 14.84a2 2 0 103.26 2.318zm80.74 0c-3.915-5.51-14.648-8.598-23.893-6.328a2 2 0 11-.954-3.884c10.737-2.637 23.165.94 28.108 7.894a2 2 0 01-3.26 2.318z" fill="#000" fill-opacity=".6"></path>
        </g>
        
        <g transform="translate(56, 72)">
          <path d="M83.998 66.938c-2.5-3.336-12.267-4.749-19.277-3.474-9.653 1.757-13.744 12.303-12.506 14.215.772 1.191 2.482.793 4.26.379.814-.19 1.642-.383 2.401-.428 1.486-.089 3.34.218 5.446.567 4.981.824 11.37 1.88 17.628-1.508a6.041 6.041 0 002.048-1.85 6.041 6.041 0 002.048 1.85c6.257 3.389 12.647 2.332 17.628 1.508 2.106-.349 3.96-.656 5.446-.567.759.045 1.587.238 2.401.428 1.778.414 3.488.812 4.26-.379 1.238-1.912-2.853-12.458-12.507-14.215-7.009-1.275-16.775.138-19.276 3.474z" fill="#4A312C"></path>
        </g>
        <g transform="translate(7, 0)">
          <path fill-rule="evenodd" clip-rule="evenodd" d="M167.309 35.006c-20.188-11.7-40.18-9.784-55.272-5.976-15.092 3.808-24.02 14.621-31.68 30.618-3.761 7.855-5.991 17.143-6.334 25.833-.135 3.412.325 6.934 1.245 10.22.337 1.205 2.155 5.386 2.654 2.008.166-1.125-.442-2.676-.5-3.871-.078-1.569.005-3.157.112-4.723.2-2.928.722-5.8 1.65-8.59 1.328-3.988 3.017-8.312 5.603-11.677 6.401-8.328 17.482-8.802 26.279-13.384-.763 1.405-3.706 3.68-2.687 5.263.705 1.094 3.37.762 4.643.727 3.349-.092 6.713-.674 10.021-1.147 5.213-.745 10.098-2.255 15.004-4.089 4.016-1.502 8.603-2.892 11.622-6.078 4.871 5.048 11.141 9.794 17.401 13.003 5.618 2.88 14.679 4.318 18.113 10.158 4.065 6.914 2.195 15.406 3.436 22.9.472 2.85 1.545 2.786 2.132.237.997-4.33 1.468-8.828 1.151-13.279-.718-10.048-4.405-36.453-24.593-48.153z" fill="#4A312C"></path>
        </g>
        <g transform="translate(69, 85)">
          <path fill-rule="evenodd" clip-rule="evenodd" d="M38.5 9C17.21 9 9.646 14.096 8.955 14.772 7.324 14.772 6 16.062 6 17.657v2.886c0 1.596 1.324 2.886 2.955 2.886 0 0 5.909 0 5.909 2.886 0 .435.067.644.181.68A62.59 62.59 0 0015 29.5C15 42.336 23.315 50 37.242 50H40c14.721 0 25-8.431 25-20.5 0-1.502-.038-2.999-.17-4.46l1.583-.773a7.917 7.917 0 011.891-.633c1.855-.38 3.952-.227 5.992.276.732.18 1.26.354 1.504.45l1.381.547C77.041 26.41 77 27.953 77 29.5 77 42.336 85.315 50 99.242 50H102c14.721 0 25-8.431 25-20.5 0-1.536-.04-3.067-.178-4.56 1.739-1.511 6.223-1.511 6.223-1.511 1.634 0 2.955-1.29 2.955-2.886v-2.886c0-1.596-1.321-2.885-2.955-2.885C132.354 14.096 124.79 9 103.5 9h-2.97c-1.79 0-3.445.069-4.975.201-9.533.539-14.679 2.15-19.913 4.696a17.01 17.01 0 01-4.563.869c-2.379-.076-4.412-.767-4.81-.908l-.419-.206-.006-.003c-4.935-2.415-8.429-4.125-20.772-4.547A61.165 61.165 0 0041.47 9H38.5zM19 30.502C19 21.84 19 15 38.385 15h3.23C61 15 61 21.841 61 30.502 61 39.627 52.365 46 40 46h-3.03C22.117 46 19 37.572 19 30.502zm62 0C81 21.84 81 15 100.385 15h3.23C123 15 123 21.841 123 30.502 123 39.627 114.365 46 102 46h-3.03C84.12 46 81 37.572 81 30.502z" fill="#000" fill-opacity=".1"></path>
          <path fill-rule="evenodd" clip-rule="evenodd" d="M38.5 7C17.21 7 9.646 12.096 8.955 12.772 7.324 12.772 6 14.062 6 15.657v2.886c0 1.596 1.324 2.886 2.955 2.886 0 0 5.909 0 5.909 2.886 0 .435.067.644.181.68A62.59 62.59 0 0015 27.5C15 40.336 23.315 48 37.242 48H40c14.721 0 25-8.431 25-20.5 0-1.502-.038-2.999-.17-4.46l1.583-.773a7.917 7.917 0 011.891-.633c1.855-.38 3.952-.227 5.992.276.732.18 1.26.354 1.504.45l1.381.547C77.041 24.41 77 25.953 77 27.5 77 40.336 85.315 48 99.242 48H102c14.721 0 25-8.431 25-20.5 0-1.536-.04-3.067-.178-4.56 1.739-1.511 6.223-1.511 6.223-1.511 1.634 0 2.955-1.29 2.955-2.886v-2.886c0-1.595-1.321-2.885-2.955-2.885C132.354 12.096 124.79 7 103.5 7h-2.97c-1.79 0-3.445.069-4.975.2-9.533.54-14.679 2.152-19.913 4.697a17.01 17.01 0 01-4.563.869c-2.379-.076-4.412-.767-4.81-.908l-.419-.206-.006-.003c-4.935-2.415-8.429-4.125-20.772-4.547A61.165 61.165 0 0041.47 7H38.5zM19 28.502C19 19.84 19 13 38.385 13h3.23C61 13 61 19.841 61 28.502 61 37.627 52.365 44 40 44h-3.03C22.117 44 19 35.572 19 28.502zm62 0C81 19.84 81 13 100.385 13h3.23C123 13 123 19.841 123 28.502 123 37.627 114.365 44 102 44h-3.03C84.12 44 81 35.572 81 28.502z" fill="#262E33"></path>
        </g>
        
      
      </svg>
    