
      <svg viewBox="0 0 280 280" fill="none" xmlns="http://www.w3.org/2000/svg">
        
        <g transform="translate(40, 36)">
          <path d="M100 0C69.072 0 44 25.072 44 56v6.166c-5.675.952-10 5.888-10 11.834v14c0 6.052 4.48 11.058 10.305 11.881 2.067 19.806 14.458 36.541 31.695 44.73V163h-4c-39.764 0-72 32.236-72 72v9h200v-9c0-39.764-32.236-72-72-72h-4v-18.389c17.237-8.189 29.628-24.924 31.695-44.73C161.52 99.058 166 94.052 166 88V74c0-5.946-4.325-10.882-10-11.834V56c0-30.928-25.072-56-56-56z" fill="#FD9841"></path>
          <path d="M76 144.611v8A55.79 55.79 0 00100 158a55.789 55.789 0 0024-5.389v-8A55.789 55.789 0 01100 150a55.79 55.79 0 01-24-5.389z" fill="#000" fill-opacity=".1"></path>
        </g>
        <g transform="translate(8, 170)">
          <path d="M132.5 54c18.502 0 33.5-9.626 33.5-21.5a14.08 14.08 0 00-.376-3.232C202.76 32.138 232 63.18 232 101.052V110H32v-8.948c0-38.217 29.775-69.48 67.393-71.855A14.108 14.108 0 0099 32.5C99 44.374 113.998 54 132.5 54z" fill="#FF488E"></path>
          <g transform="translate(77, 60)">
          <path fill-rule="evenodd" clip-rule="evenodd" d="M71.764 15.26c1.59-.184 4.784-.552 5.196.975.302 1.091-1.165 2.077-2.263 2.815-.336.226-.637.428-.843.604l-.164.139c-1.456 1.241-2.965 2.528-4.661 3.408a12.85 12.85 0 01-2.926 1.083c-.279.07-.434.107-.55.196-.148.112-.235.305-.43.739l-.037.082c-.45 1.001-.721 2.18-.993 3.363-.234 1.016-.468 2.035-.818 2.95-1.704 4.453-5.767 14.8-12.267 10.258-1.707-1.193-2.774-3.31-3.75-5.244-.206-.41-.408-.81-.61-1.192-1.335-2.512-2.613-5.508-3.381-8.25a10.342 10.342 0 01-.206-.912c-.13-.683-.2-1.048-.923-1.503-.37-.233-.893-.363-1.403-.49-.35-.088-.695-.174-.981-.29-1.5-.61-2.813-1.436-4.088-2.43-1.238-.966-6.11-4.951-2.132-5.691 1.804-.336 4.16-.217 6.001-.124l.066.004c2.027.102 4.073.57 5.877 1.535l.012.007c.89.477 1.22.654 1.545.646.19-.005.379-.074.679-.182.236-.086.542-.197.973-.322-3.322-1.125-6.649-2.997-8.884-5.78-1.207-1.503-4-7.654-1.9-9.065 1.791-1.206 2.415 2.005 2.881 4.4.19.975.353 1.814.558 2.167 1.24 2.136 3.281 3.236 5.32 4.336.58.313 1.161.626 1.723.963-1.741-1.668-3.04-3.505-3.674-5.868l-.08-.294c-.315-1.143-.903-3.28-.439-4.192.529-1.04 1.772-1.106 2.458-.22.41.529.48 1.514.542 2.399.031.448.06.87.132 1.192.35 1.589.921 2.81 1.982 4.04 1.505 1.746 3.417 3.175 5.669 3.727 5.127 1.259 6.92-4.107 7.608-8.244.04-.243.056-.523.074-.817.054-.932.117-1.992.976-2.362 1.367-.589 1.896.746 1.936 1.781.087 2.314-1.056 5.857-2.166 7.845 2.79-1.732 5.003-4.478 5.899-7.688.105-.378.15-.905.197-1.468.103-1.205.22-2.58.977-3.035 1.54-.924 2.029.917 1.975 2.022-.319 6.515-5.298 12.44-11.488 14.069.21.105.388.2.542.28.954.505.989.524 2.306-.257a13.03 13.03 0 012.827-1.23c1.47-.452 3.055-.682 4.58-.817.146-.012.331-.034.546-.059zM58.86 24.62c-.067 3.271-3.238 3.04-2.822.095.326-2.311 3.681-2.233 2.822-.095zm-1.93 9.016c-.49 1.56-4.332 2.121-3.895-.17.369-1.942 4.554-2.026 3.895.17zM51.703 27c-2.82 0-1.895-4.875.996-3.861 2.275.796 1.327 3.861-.996 3.861z" fill="#fff"></path>
        </g>
        </g>
        <g transform="translate(86, 134)">
          <path fill-rule="evenodd" clip-rule="evenodd" d="M35.118 15.128C36.176 24.62 44.226 32 54 32c9.804 0 17.874-7.426 18.892-16.96.082-.767-.775-2.04-1.85-2.04H37.088c-1.08 0-2.075 1.178-1.97 2.128z" fill="#000" fill-opacity=".7"></path>
          <path d="M70 13H39a5 5 0 005 5h21a5 5 0 005-5z" fill="#fff"></path>
          <path d="M66.694 27.138A10.964 10.964 0 0059 24c-1.8 0-3.5.433-5 1.2-1.5-.767-3.2-1.2-5-1.2-2.995 0-5.71 1.197-7.693 3.138A18.93 18.93 0 0054 32c4.88 0 9.329-1.84 12.694-4.862z" fill="#FF4F6D"></path>
        </g>
        <g transform="translate(112, 122)">
          <path fill-rule="evenodd" clip-rule="evenodd" d="M16 8c0 4.418 5.373 8 12 8s12-3.582 12-8" fill="#000" fill-opacity=".16"></path>
        </g>
        <g transform="translate(84, 90)">
          <path d="M36 22a6 6 0 11-12 0 6 6 0 0112 0zm52 0a6 6 0 11-12 0 6 6 0 0112 0z" fill="#000" fill-opacity=".6"></path>
        </g>
        <g transform="translate(84, 82)">
          <path fill-rule="evenodd" clip-rule="evenodd" d="M22.766 1.578l.911-.402C28.92-.905 36.865-.033 41.723 2.299c.567.272.18 1.153-.402 1.108-14.919-1.151-24.963 8.146-28.375 14.44-.101.187-.407.208-.482.034-2.308-5.319 4.45-13.985 10.302-16.303zm66.468 0l-.911-.402C83.08-.905 75.135-.033 70.277 2.299c-.567.272-.18 1.153.402 1.108 14.919-1.151 24.963 8.146 28.375 14.44.101.187.407.208.483.034 2.307-5.319-4.45-13.985-10.303-16.303z" fill="#000" fill-opacity=".6"></path>
        </g>
        <g transform="translate(7, 0)">
          <path d="M177.747 37.856c9.527 7.102 17.761 18.582 18.159 30.824.175 5.507-.617 11.227-1.722 16.616-.504 2.463-1.609 4.661-2.709 6.85-1.066 2.125-2.129 4.24-2.638 6.583-2.627-8.925-10.084-13.97-17.504-18.99-3.953-2.674-7.896-5.341-11.091-8.584 1.016 1.93 2.305 3.695 3.591 5.454 1.24 1.698 2.477 3.392 3.461 5.224-9.247-5.665-18.206-13.88-22.032-24.295-.707 5.398-2.716 10.39-6.108 14.666-3.011 3.796-7.582 7.87-12.295 9.34 2.427-5.507 4.502-11.217 6.407-16.925-1.784 2.316-7.221 11.286-9.611 15.23l-.764 1.26c-1.656 2.72-3.513 5.317-5.507 7.803-.933 1.163-1.929 2.287-2.931 3.391a67.9 67.9 0 01-1.787 1.895c-.041.041-.132.139-.246.261-.492.527-1.421 1.52-.666.545-1.858 2.35-4.451 4.26-6.911 6.07-.473.349-.942.695-1.4 1.039-2.852 2.144-5.96 3.968-9.19 5.476-7.097 3.313-14.383 4.538-22.114 3.199.903.101 2.352-.405 3.53-.817.466-.163.889-.311 1.22-.401 1.809-.492 3.474-1.117 5.113-2.024a53.849 53.849 0 009.176-6.418c-1.365.581-2.6 1.423-3.842 2.27-1.224.834-2.454 1.673-3.822 2.273-2.287 1.003-4.547 1.526-7.032 1.766-5.462.529-11.995-.72-16.721-3.587-5.492-3.333-8.542-9.051-9.99-15.137-1.68-7.067-.636-15.04 3.328-21.074.135 2.143 4.436 3.064 7.916 2.527 3.774-.582 6.95-6.52 10.913-13.926 6.178-11.548 14.268-26.669 29.514-30.64 19.961-5.2 34.209 3.874 35.42 4.657 1.214.784 1.795.629 2.93.326.209-.056.437-.117.691-.178 6.346-1.52 13.258-2.209 19.705-.927 6.34 1.262 12.418 4.546 17.559 8.378z" fill="#4A312C"></path>
          <path d="M71.933 110.752c.069.012.137.025.206.036a1.6 1.6 0 01-.206-.036zm7.073 45.439c.8-1.518 1.567-3.052 2.31-4.597A56.209 56.209 0 00109 180.611v8.999a54.395 54.395 0 01-7.726 1.96c-9.013 1.617-34.325-3.528-45.445-11.982-.848-.645-.418-1.917.67-1.992 11.66-.797 17.627-12.134 22.405-21.212l.102-.193zM157 183.053v-2.442a56.18 56.18 0 0018.127-13.713c.715 2.24 1.748 4.333 3.428 5.788 1.321 1.144 3.486 1.127 5.341 1.113h.001a31.76 31.76 0 011.202.004 69.91 69.91 0 005.016-.019c.839-.037 1.213 1.014.534 1.498a8.06 8.06 0 01-.39.262 39.194 39.194 0 01-3.25 1.812c-2.524 1.258-5.187 2.244-7.982 2.734-1.916.337-3.816.4-5.654.177a9.842 9.842 0 001.699 1.941c1.409 1.223 3.72 1.204 5.699 1.189.45-.004.883-.007 1.284.004 1.785.052 3.571.057 5.353-.02.896-.039 1.295 1.084.57 1.601a7.974 7.974 0 01-.416.28 41.968 41.968 0 01-3.468 1.937c-2.694 1.345-5.537 2.398-8.519 2.922-5.499.966-10.869-.177-15.194-3.708a24.898 24.898 0 01-3.381-3.36z" fill="#4A312C"></path>
          <path d="M81.315 151.594a140.115 140.115 0 01-2.309 4.597l-.102.193c-4.778 9.078-10.745 20.415-22.404 21.212-1.09.075-1.52 1.347-.671 1.992 11.12 8.454 36.432 13.599 45.445 11.982a54.395 54.395 0 007.726-1.96v-8.999a56.205 56.205 0 01-27.685-29.017zM157 180.611v2.442a24.898 24.898 0 003.381 3.36c4.325 3.531 9.695 4.674 15.194 3.708 2.982-.524 5.825-1.577 8.519-2.922a41.968 41.968 0 003.468-1.937c.139-.087.278-.181.416-.28.725-.517.326-1.64-.57-1.601a74.062 74.062 0 01-5.353.02 36.241 36.241 0 00-1.284-.004c-1.979.015-4.29.034-5.699-1.189a9.842 9.842 0 01-1.699-1.941c1.838.223 3.738.16 5.654-.177 2.795-.49 5.458-1.476 7.982-2.734a39.194 39.194 0 003.25-1.812c.13-.081.26-.17.39-.262.679-.484.305-1.535-.534-1.498a69.91 69.91 0 01-5.016.019 31.82 31.82 0 00-1.203-.004c-1.855.014-4.02.031-5.341-1.113-1.68-1.455-2.713-3.548-3.428-5.788A56.18 56.18 0 01157 180.611z" fill="#000" fill-opacity=".16"></path>
        </g>
        <g transform="translate(56, 72)">
          <path fill-rule="evenodd" clip-rule="evenodd" d="M65.18 77.737c2.183-1.632 15.226-2.258 17.578-3.648.734-.434 1.303-.873 1.742-1.309.439.436 1.009.875 1.742 1.31 2.351 1.389 15.395 2.014 17.578 3.647 2.21 1.654 3.824 5.448 3.647 8.414-.212 3.56-4.106 12.052-13.795 13.03-2.114-2.353-5.435-3.87-9.172-3.87-3.737 0-7.058 1.517-9.172 3.87-9.69-.978-13.583-9.47-13.795-13.03-.176-2.966 1.437-6.76 3.647-8.414zm.665 17.164l.017.007-.017-.007zm79.018-38.916c-.389-5.955-1.585-11.833-2.629-17.699-.281-1.579-1.81-12.286-2.499-12.286-.233 9.11-1.033 18.08-2.065 27.14-.309 2.708-.632 5.416-.845 8.134-.171 2.196.135 4.848-.397 6.972-.679 2.707-4.08 5.232-6.725 6.165-6.6 2.326-12.105-7.303-17.742-10.12-7.318-3.656-19.897-4.527-27.38.239-7.645-4.766-20.224-3.895-27.542-.239-5.637 2.817-11.142 12.446-17.742 10.12-2.645-.933-6.047-3.459-6.725-6.165-.532-2.124-.226-4.776-.397-6.972-.213-2.718-.536-5.426-.845-8.135C30.298 44.08 29.498 35.11 29.265 26c-.689 0-2.218 10.707-2.5 12.286-1.043 5.866-2.24 11.744-2.627 17.7-.4 6.119.077 12.182 1.332 18.177a165.44 165.44 0 002.049 8.541c.834 3.143-.32 9.262.053 12.488.707 6.104 3.582 18.008 6.811 23.259 1.561 2.538 3.39 4.123 5.433 6.168 1.967 1.969 2.788 5.021 4.91 7.118 3.956 3.908 9.72 6.234 15.64 6.806C65.677 143.05 74.506 146 84.5 146c9.995 0 18.823-2.95 24.135-7.457 5.919-.572 11.683-2.898 15.639-6.806 2.122-2.097 2.943-5.149 4.91-7.118 2.042-2.045 3.872-3.63 5.433-6.168 3.229-5.251 6.104-17.155 6.811-23.259.373-3.226-.781-9.345.053-12.488.751-2.828 1.45-5.676 2.05-8.54 1.254-5.996 1.73-12.06 1.332-18.179z" fill="#4A312C"></path>
        </g>
        
        
        
      
      </svg>
    