<svg width="19.322mm" height="19mm" version="1.1" viewBox="0 0 19.322 19" xmlns="http://www.w3.org/2000/svg" xmlns:xlink="http://www.w3.org/1999/xlink">
 <defs>
  <linearGradient id="a" x1="36.635" x2="36.635" y1="6.4761" y2="26.537" gradientUnits="userSpaceOnUse">
   <stop stop-color="#11aeed" offset="0"/>
   <stop stop-color="#11aeed" stop-opacity="0" offset="1"/>
  </linearGradient>
 </defs>
 <g transform="translate(-10.392 4.038e-5)">
  <path transform="matrix(1 0 0 .91663 0 .19032)" d="m14.271-0.20763c-1.3697 0.016926-2.4718 1.2331-2.4717 2.7275 2.9e-5 1.2143 0.73589 2.2823 1.8051 2.6198-1.3567 1.6905-2.1046 3.861-2.1048 6.1079 1.44e-4 5.1212 3.8055 9.2727 8.4997 9.2729 4.6944 1.55e-4 8.5001-4.1514 8.5003-9.2729-1.7e-5 -2.2471-0.74796-4.4178-2.1048-6.1084 1.0688-0.33769 1.8043-1.4054 1.8045-2.6193 5.8e-5 -1.5062-1.119-2.7273-2.4996-2.7275-1.3808-6.387e-5 -2.5002 1.2211-2.5001 2.7275-3.6e-5 0.046062 9.98e-4 0.092118 0.0031 0.13812-1.0173-0.45159-2.1051-0.68382-3.2034-0.68385-1.0981 1.027e-4 -2.1858 0.23233-3.2029 0.68385 0.0021-0.046005 0.0031-0.092061 0.0031-0.13812 5.8e-5 -1.5064-1.1193-2.7276-2.5001-2.7275-0.0095-5.874e-5 -0.01895-5.874e-5 -0.02842 0z" fill="url(#a)"/>
 </g>
 <g transform="translate(-10.392 4.038e-5)">
  <g transform="matrix(1 0 0 .91663 0 .19032)" fill="#CBC0D3" stroke-width=".265" aria-label="BooSTAO">
   <path d="m14.778 17.099q-2.0151 0-3.2004-1.1261-1.1853-1.1458-1.1853-3.0819v-2.8053q0-1.936 1.1853-3.0621 1.1853-1.1458 3.2004-1.1458t3.2004 1.1458q1.2051 1.1261 1.2051 3.0621v2.8053q0 1.936-1.2051 3.0819-1.1853 1.1261-3.2004 1.1261zm0-1.8768q1.0668 0 1.6595-0.59267 0.61242-0.61242 0.61242-1.7385v-2.8053q0-1.1261-0.61242-1.7187-0.59267-0.61242-1.6595-0.61242-1.0668 0-1.6595 0.61242-0.59267 0.59267-0.59267 1.7187v2.8053q0 1.1261 0.59267 1.7385 0.59267 0.59267 1.6595 0.59267z"/>
   <path d="m25.308 17.099q-2.0151 0-3.2004-1.1261-1.1853-1.1458-1.1853-3.0819v-2.8053q0-1.936 1.1853-3.0621 1.1853-1.1458 3.2004-1.1458 2.0151 0 3.2004 1.1458 1.2051 1.1261 1.2051 3.0621v2.8053q0 1.936-1.2051 3.0819-1.1853 1.1261-3.2004 1.1261zm0-1.8768q1.0668 0 1.6595-0.59267 0.61242-0.61242 0.61242-1.7385v-2.8053q0-1.1261-0.61242-1.7187-0.59267-0.61242-1.6595-0.61242-1.0668 0-1.6595 0.61242-0.59267 0.59267-0.59267 1.7187v2.8053q0 1.1261 0.59267 1.7385 0.59267 0.59267 1.6595 0.59267z"/>
  </g>
 </g>
</svg>
