<?xml version="1.0" encoding="UTF-8"?>
<svg width="77.942" height="45" version="1.1" viewBox="0 0 20.622 11.906" xmlns="http://www.w3.org/2000/svg">
 <g>
  <g fill="#DFDFDF30" stroke="#DFDFDF15">
   <path d="m-2.9078-1.679v3.3579c0.96928 0.55948 1.9386 1.119 2.9078 1.6785 0.96928-0.55948 1.9386-1.119 2.9078-1.6785v-3.3579c-0.96928-0.55948-1.9386-1.119-2.9078-1.6785-0.96928 0.55948-1.9386 1.119-2.9078 1.6785z" stroke-width=".26458"/>
   <path transform="matrix(.26458 0 0 .26458 10.311 1.9844)" d="m-2.1709e-7 5.718e-8 -12.99 7.5-12.99-7.5v-15l12.99-7.5 12.99 7.5z"/>
   <path transform="matrix(.26458 0 0 .26458 17.185 1.9844)" d="m-2.1709e-7 5.718e-8 -12.99 7.5-12.99-7.5v-15l12.99-7.5 12.99 7.5z"/>
   <path d="m17.714-1.679v3.3579c0.96928 0.55948 1.9386 1.119 2.9078 1.6785 0.96928-0.55948 1.9386-1.119 2.9078-1.6785v-3.3579c-0.96928-0.55948-1.9386-1.119-2.9078-1.6785-0.96928 0.55948-1.9386 1.119-2.9078 1.6785z" stroke-width=".26458"/>
   <path transform="matrix(.26458 0 0 .26458 6.8741 7.9375)" d="m-2.1709e-7 5.718e-8 -12.99 7.5-12.99-7.5v-15l12.99-7.5 12.99 7.5z"/>
   <path d="m-2.9078 10.227v3.3579c0.96928 0.55948 1.9386 1.119 2.9078 1.6785 0.96928-0.55948 1.9386-1.119 2.9078-1.6785v-3.3579c-0.96928-0.55948-1.9386-1.119-2.9078-1.6785-0.96928 0.55948-1.9386 1.119-2.9078 1.6785z" stroke-width=".26458"/>
   <path d="m7.4033 4.2742v3.3579c0.96928 0.55948 1.9386 1.119 2.9078 1.6785 0.96928-0.55948 1.9386-1.119 2.9078-1.6785v-3.3579c-0.96928-0.55948-1.9386-1.119-2.9078-1.6785-0.96928 0.55948-1.9386 1.119-2.9078 1.6785z" stroke-width=".26458"/>
   <g>
    <path transform="matrix(.26458 0 0 .26458 10.311 13.891)" d="m-2.1709e-7 5.718e-8 -12.99 7.5-12.99-7.5v-15l12.99-7.5 12.99 7.5z"/>
    <path transform="matrix(.26458 0 0 .26458 17.185 13.891)" d="m-2.1709e-7 5.718e-8 -12.99 7.5-12.99-7.5v-15l12.99-7.5 12.99 7.5z"/>
    <path transform="matrix(.26458 0 0 .26458 20.622 7.9375)" d="m-2.1709e-7 5.718e-8 -12.99 7.5-12.99-7.5v-15l12.99-7.5 12.99 7.5z"/>
   </g>
   <path d="m17.714 10.227v3.3579c0.96928 0.55948 1.9386 1.119 2.9078 1.6785 0.96928-0.55948 1.9386-1.119 2.9078-1.6785v-3.3579c-0.96928-0.55948-1.9386-1.119-2.9078-1.6785-0.96928 0.55948-1.9386 1.119-2.9078 1.6785z" stroke-width=".26458"/>
  </g>
 </g>
</svg>
